<?xml version="1.0" encoding="UTF-8"?>
<!DOCTYPE svg PUBLIC "-//W3C//DTD SVG 1.1//EN" "http://www.w3.org/Graphics/SVG/1.1/DTD/svg11.dtd">
<!-- Creator: CorelDRAW 2021 (64-Bit) -->
<svg xmlns="http://www.w3.org/2000/svg" xml:space="preserve" width="3543px" height="1417px" version="1.1" style="shape-rendering:geometricPrecision; text-rendering:geometricPrecision; image-rendering:optimizeQuality; fill-rule:evenodd; clip-rule:evenodd"
viewBox="0 0 3543 1417.2"
 xmlns:xlink="http://www.w3.org/1999/xlink"
 xmlns:xodm="http://www.corel.com/coreldraw/odm/2003">
 <defs>
  <style type="text/css">
   <![CDATA[
    .fil1 {fill:black}
    .fil6 {fill:#003444}
    .fil10 {fill:#006A86}
    .fil0 {fill:#0082A6}
    .fil4 {fill:#01546A}
    .fil3 {fill:#17434D}
    .fil5 {fill:#30464B}
    .fil9 {fill:#504845}
    .fil7 {fill:#794B3D}
    .fil8 {fill:#AF5539}
    .fil11 {fill:#CF5B35}
    .fil2 {fill:#F96933}
   ]]>
  </style>
 </defs>
 <g id="Layer_x0020_1">
  <metadata id="CorelCorpID_0Corel-Layer"/>
  <path class="fil0" d="M619.01 1262.02l-140.1 -0.05 -20.9 -0.66c-20.71,3.43 -35.1,0.08 -55.83,-3.36l8.1 -3.25 -28.66 -3.04 15.67 -72.66c2.87,-20.15 2.74,-18.67 -8.89,-26.58l22.48 -2.61 121.81 -1.5 87.11 1.55c-60.58,-22.77 -267.78,33.15 -352.39,-46.83 -38.31,-36.2 -49.05,-90.82 -49.02,-152.02 0.02,-36.69 -5.22,-173.66 2.52,-198.46 72.74,-1.54 146.66,-0.26 219.54,-0.36 61.73,-0.09 163.02,8.42 163.63,-59.52 0.63,-69.73 -103.69,-59.83 -163.63,-59.93 -70.65,-0.12 -149.49,3.41 -219.07,-0.52 -8.19,-26.16 -3.9,-118.75 -3.95,-152.01 -0.32,-228.35 84.05,-202.96 273.01,-200.74 64.67,0.77 422.25,-6.08 464.74,2.16 60.92,11.82 80.37,39.4 110.19,53.15 9.07,-15.2 -2.22,0.45 12,-2.79 26.66,-6.1 -0.3,-15.96 36.34,-28.06 63.52,-20.98 31.4,-48.22 51.47,-36.22 -38.11,-62.67 -138.51,-115.15 -241.34,-115.44 -118.07,-0.32 -236.16,0.05 -354.24,-0.04 -102.03,-0.09 -246.29,-14.33 -326.68,26.4 -176.5,89.42 -152.96,225.17 -153.15,376.58 -0.14,110.18 -8.94,456.7 12.09,521.94 26.22,81.39 99.65,150.41 180.27,174.72 60.38,18.21 236.36,17.74 316.94,14.46 3.76,-0.15 7.49,-0.3 11.16,-1.05 12.65,-2.59 0.3,2.51 8.78,-3.26z"/>
  <path class="fil1" d="M2378.93 272.66c-5.42,51.32 -6.21,453.16 3.27,478.34 21.48,10.02 117.07,3.88 149.85,2.48 139.01,-5.92 212.38,-100.33 213.5,-252.47 0.71,-95.62 -34.62,-169.84 -100.44,-209.09 -75.91,-45.25 -180.62,-37.52 -266.18,-19.26zm91.67 75.48c-7.71,61.98 -0.19,180.41 -0.16,248.73 0.02,67.85 -17.56,75.03 52.99,69.41 168.29,-13.41 158.35,-255.71 57.33,-305.42 -25.11,-12.36 -79.31,-19.76 -110.16,-12.72z"/>
  <path class="fil2" d="M741.04 1151.14l0.38 113.95c75.85,4.6 217.17,6.36 278.79,-12.53 72.81,-22.32 140.56,-75.96 172.03,-124.64 50.44,-78.07 51.94,-134.16 51.68,-243.57 -0.24,-98.01 1.99,-197.88 -0.38,-295.61l-107.73 -0.7c-1.97,78.71 0.12,159.48 0.14,237.98 0.02,148.08 10.67,264.16 -163.94,314.48 -73.63,21.22 -157.17,0.87 -230.97,10.64z"/>
  <path class="fil1" d="M1719.5 749.16l2.49 -87.89c-63.32,-9.42 -182.12,24.06 -189.81,-10.85l-1.5 -109.36 160.3 -1.49c11.75,-22.58 13.36,-59.71 0.16,-76.96 -34.89,-16.01 -117.16,6.35 -160.7,-5.84 -2.61,-26.64 -9.13,-75.94 1.34,-97.2l16.75 -5.83c28.28,-3.53 141.68,7.65 163.61,-1.69 3.93,-25.66 3.67,-55.17 -1.56,-79.01 -28.38,-6.18 -248.44,-6.41 -271.67,1.63 -6.98,38.41 -1.75,323.3 -1.29,384.7 0.89,117.13 -17.94,89.99 94.4,89.04 33.17,-0.28 174.09,7.79 187.48,0.75z"/>
  <path class="fil1" d="M3073.55 653.79c-21.13,5.03 -58.54,34.96 -107.67,30.68 -37.28,-3.26 -73.81,-27.23 -74.29,-68.59l215.99 -0.77c18.26,-73.89 2.19,-198.16 -115.5,-211.96 -199.64,-23.4 -235.19,156.5 -181.85,273.38 17.68,38.75 44.72,63.47 90.85,75.59 55.57,14.6 96.39,11.31 146.42,-6.58 65.8,-23.52 68.37,-60.65 26.05,-91.75zm-189.34 -109.96l141.31 1.07c1.08,-46.68 -22.19,-74.15 -68.55,-72.73 -42.08,1.29 -69.82,27.85 -72.76,71.66z"/>
  <path class="fil1" d="M2040.31 509.28c32.34,5.11 55.86,-24.67 100.3,-29.37 46.45,-4.92 72.72,13.29 69.27,61.77 -43.58,5.73 -202.04,-17.23 -200.74,121.91 0.43,45.86 25.13,82.86 66.15,93.85 50.74,13.59 101.65,-6.17 140,-18.38l5.29 7.08c1.43,1.94 4.7,6.83 6.64,9.08 94.64,4.24 79.4,17.31 74.65,-133.35 -1.84,-58.46 6.49,-148.09 -26.37,-185.17 -51.72,-58.35 -163.36,-40.53 -240.95,0.3 -21.17,11.14 -20.86,14.67 -11.72,35.57 5.31,12.15 11.49,24.87 17.48,36.71zm59.71 169.66c30.3,14.77 119.66,19.07 111.72,-65.71 -41.21,-2.97 -133.27,-7.62 -111.72,65.71z"/>
  <path class="fil2" d="M966.05 922.18c-35.61,-11.68 -23.15,-3.84 -67.51,-28.61l-10.45 -4.63c-0.56,-0.24 -1.71,-0.68 -2.29,-0.93l-21.93 -10.12c-10.41,-6.88 -6.91,-5.73 -11.42,-11.43 -34.9,19.2 -51.36,32.01 -100.64,37.15 -72.34,7.55 -380.07,-7.34 -412.18,4.49l-0.38 106.8c19.96,4.83 313.37,1.89 359.51,1.98 67.34,0.13 99.66,2.53 160.11,-18.98 44.23,-15.74 91.05,-51.91 107.18,-75.72z"/>
  <path class="fil1" d="M3123.36 413.95c0.19,26.76 109.97,296.52 128.21,334.19 21.36,4.22 30,10.05 55.29,9.02 26.74,-1.09 26.51,-11.15 34.61,-34.55 11.39,-32.91 26.05,-68.34 38.52,-98.54 11.52,-27.89 73.97,-191.65 74.49,-206.35 -22.95,-15.27 -52.19,-16.91 -85.12,-12.3 -31.21,49.64 -47.82,169.94 -74.99,208.38 -3.89,-3.24 -3.5,-1.93 -7.77,-9.3l-73.41 -200.9c-31.21,0.06 -68.66,-1.75 -89.83,10.35z"/>
  <path class="fil1" d="M1874.13 417.51c-23.24,-9.74 18.05,11.37 -6.75,-5.56 -20.16,-13.75 -61.88,-5.43 -81.71,5.77l6.48 331.23c33.38,11.53 59.25,8.22 91.45,0.2 11.31,-59.59 -7.44,-179 -2.77,-245.75 38.45,-31.06 59.75,-8.44 105.32,-15.68 4.13,-8.73 9.55,-38.73 10.1,-49.39 3.3,-63.57 -102.13,-36.41 -122.12,-20.82z"/>
  <path class="fil1" d="M2806.91 1145.53c65.25,-0.08 115.91,2.74 127.13,-92.77 8.55,-72.86 -11.07,-128.12 -77.62,-139 -72.13,-11.78 -121.98,20.36 -128.8,87.08 -7.51,73.51 5.52,144.78 79.29,144.69zm-0.96 -201.04c-49.25,14.37 -56.18,62.51 -49.52,114.98 6.37,50.08 51.92,71.99 103.41,57.25 73.7,-21.09 65.46,-207.06 -53.89,-172.23z"/>
  <path class="fil1" d="M1727.38 916.26c-30.79,7.64 -48.18,21.79 -59.81,49.34 -19.73,46.73 -14.77,135.44 25.26,166.42 23.33,18.05 72.07,15.88 101.96,12.22 103.34,-12.66 114.55,-273.13 -67.41,-227.98zm14.68 27.35c-53.1,13.14 -59.13,49.97 -55.24,107.64 3.57,52.86 41.88,76.99 94.95,67.06 87.66,-16.41 75.05,-203.09 -39.71,-174.7z"/>
  <path class="fil0" d="M782.26 505.66c-20.82,-9.32 -101.64,-6.11 -130.69,-4.91l-53.24 -0.72 -24.21 -7.54c-3.27,-17.34 2.41,-27.24 4.49,-49.81 3.03,-32.87 -0.74,-37.24 8.01,-45.03 -16.51,-2.11 -18.38,-1.25 -28.15,-8.89l-219.17 -0.3 -0.19 116.54 443.15 0.66z"/>
  <path class="fil3" d="M651.57 500.75c29.05,-1.2 109.87,-4.41 130.69,4.91 35.32,3.46 57.97,13.41 80.61,30.22 20.05,5.58 5.12,1.92 10.85,-1.52l-8.33 -20.84c10.36,5.78 11.77,0.35 27.77,-2.18 0.97,-0.15 2.21,-0.19 3.15,-0.33l15.99 -3.45c18.34,-3.58 11.27,2.46 26.24,-2.77l22.92 -9.05c0.61,-0.02 1.8,-0.01 2.39,0.07 0.59,0.08 1.79,0.46 2.35,0.62l7.51 4.6c5.14,-13.35 2.55,7.06 4.19,-16.67 16.43,7.09 3.6,0.64 16.65,20.83l2.74 -12.73c-25.61,-40.05 -54.28,-71.78 -101.69,-88.55 -60.55,-21.42 -100.69,-15.22 -170.83,-15.54 -4.12,3.89 0.97,5.02 -8.07,5.54l36.84 5.51c0.05,0.15 0.41,1.25 0.49,1.42 7.04,14.64 6.73,6.14 -0.09,21.28l-9.58 15.92c-18.63,26.79 13.94,6.58 -2.91,41.76l-9.36 14.49 -80.52 6.46z"/>
  <path class="fil1" d="M3012.29 984.34l0.33 159.78c43.24,8.68 29.36,-20.18 29.29,-59.79l0.23 -110.28c18.72,9.03 51.4,75.95 63.81,98.73 11.54,21.19 43.51,100.69 77.83,68.32 2.09,-1.98 5.01,3.06 5.42,-23.04l-0.03 -203.23 -34.04 -0.58c4.96,67.58 2.94,99.91 2.93,170.69 -37.92,-11.78 -81.02,-169.19 -123.26,-173.21 -34.71,-3.31 -22.57,40.83 -22.51,72.61z"/>
  <path class="fil1" d="M2307.69 913.59l-29.75 -0.68c0.14,45.12 1.13,90.29 -0.36,134.06 -1.56,46.02 -13.25,72.38 -62.3,72.77 -45.71,0.36 -61.09,-29.19 -62.75,-72.71 -1.62,-42.45 -1.17,-92.13 1.2,-134.44l-28.93 0.84c1.75,117.64 -25.12,238.55 90.43,235.97 115.81,-2.58 89.93,-112.27 92.46,-235.81z"/>
  <path class="fil1" d="M3264.14 1108.08l-2.7 21.96c28.13,22.61 83.85,25.97 119.88,7.83 31.64,-15.93 50.7,-68.4 15.01,-101.38 -21.74,-20.09 -90.07,-32.94 -94.37,-60.9 -10.02,-65.06 104.93,-19.52 104.94,-19.51l3.3 -25.79c-114.42,-68.46 -187.29,49.09 -107.29,95.37 23.45,13.57 94.94,27.28 78.52,69.73 -18.67,48.32 -104.81,9.41 -117.29,12.69z"/>
  <path class="fil1" d="M1442.6 1110.76l-2.23 23.49c21.36,12.54 36.32,11 62.49,11.06 111.63,0.24 112.67,-95.85 40.1,-126.05 -23.64,-9.84 -81.99,-24.22 -63.78,-61.87 19.03,-39.37 97.18,-0.68 101.25,-0.42l7.04 -27.56c-128.89,-63.1 -182.46,53.16 -106.15,97.02 26.04,14.97 91.76,23.14 77.73,68.02 -6.1,19.52 -25.31,25.1 -51.98,25.6 -30.94,0.57 -42.89,-12.25 -64.47,-9.29z"/>
  <path class="fil4" d="M598.33 500.03l53.24 0.72 80.52 -6.46 9.36 -14.49c16.85,-35.18 -15.72,-14.97 2.91,-41.76l9.58 -15.92c6.82,-15.14 7.13,-6.64 0.09,-21.28 -0.08,-0.17 -0.44,-1.27 -0.49,-1.42l-36.84 -5.51c9.04,-0.52 3.95,-1.65 8.07,-5.54l-78.51 0 -12.88 1.92c17.55,16.06 9.55,2.56 15.6,14.93 -7.03,12.86 -0.86,4.41 -11.54,13.05 -11.03,8.93 -4.95,-7.69 -8.29,9 -4.49,9.85 10.59,43.96 -30.82,72.76z"/>
  <path class="fil5" d="M890.88 564.83c7.73,25.59 15.67,39.77 22.68,72.93l1.87 0.63c11.44,4.64 8.55,-5.71 9.4,8.48l14.46 -4.48c15.46,-2.68 9.6,0.47 19.07,-11.13 28.24,10.27 5.69,12.02 49.01,11.67 3.34,-8.4 4.63,-12.7 8.65,-24.01l4.05 -10.74c0.43,-1.19 0.87,-2.29 1.25,-3.4 1.58,-4.64 2.18,-9.1 3.22,-12.1 -1.27,-20.99 0.75,-37.38 -10.54,-49.09l-2.75 16.97c-2.02,-20.15 0.56,-21.17 -20.48,-22.39l-70.06 5.01c-12.21,4.78 -14.66,8.62 -28.22,11.07 2.58,6.5 3.25,6.64 4.56,10.83 0.34,1.08 0.72,2.42 1.19,4.21 0.8,-7.92 1.22,-5.54 -1.19,-4.21 -1.22,0.68 -3.17,1.09 -6.17,-0.25z"/>
  <path class="fil6" d="M478.91 1261.97l140.1 0.05 0.79 -112.16 -87.11 -1.55 6.91 11.33c-2.43,6.33 -6.22,13.98 -8.9,19.31l-9.48 18.59c-7,25.72 1.33,17.9 -15.68,47.56 -4.27,7.45 -10.29,6.03 -11.34,6.31l-24.4 4.96c-1.07,0.31 -2.22,0.68 -3.2,1.01l-5.83 2.66 18.14 1.93z"/>
  <path class="fil1" d="M2361.07 938.96l73.93 0.6c11.57,51.14 -6.19,166.43 6.34,206.03l22.66 -0.2c14.43,-38.95 -8.77,-176.53 6.7,-201.05 8.37,-9.38 59.48,-4.25 78.27,-3.94l0.89 -27.61 -189.44 -0.37 0.65 26.54z"/>
  <path class="fil7" d="M903.1 796.13c18.72,14.29 37.7,-5.17 74.11,10.84 0.5,0.22 1.58,0.87 2.06,1.11l5.95 3.66c21.54,11.71 19.24,-1.81 20.04,-5.07 1.41,24.25 -3.35,12.6 11.37,20.56l6.97 -42.85c-1.41,0.79 -2.72,1.27 -3.88,1.56 -5.38,1.32 -7.35,-1.65 0.15,2.56l-0.15 -2.56 -4.22 -73.47c-7.17,3.83 -3.78,3.53 -13.26,4.17 -20.58,1.41 -5.98,-0.62 -11.12,-2.34 -17.05,-5.7 -9.14,-1.76 -30.12,-4.6 -29.93,-4.04 -27.29,5.14 -34.05,-8.08l-11.52 -63.23 -1.87 -0.63c6.71,60.31 2.1,104.13 -10.46,158.37z"/>
  <path class="fil4" d="M460.77 1260.04l5.83 -2.66c0.98,-0.33 2.13,-0.7 3.2,-1.01l24.4 -4.96c1.05,-0.28 7.07,1.14 11.34,-6.31 17.01,-29.66 8.68,-21.84 15.68,-47.56l9.48 -18.59c2.68,-5.33 6.47,-12.98 8.9,-19.31l-6.91 -11.33 -121.81 1.5c9.5,6.47 2.27,3.2 16.91,6.44l24.52 1.54 24.08 1.51c-11.67,-3.23 -19.01,-3.75 -24.08,-1.51 -11.26,4.97 -11.36,23.58 -22.77,56.6 -0.24,0.69 -0.69,1.84 -0.91,2.49l-5.67 32.72 -12.68 5.1 50.49 5.34z"/>
  <polygon class="fil1" points="1946.6,1144.48 2073.68,1146.88 2075.29,1116.63 1977.1,1119.78 1975.8,915.3 1945.97,912.82 "/>
  <path class="fil8" d="M876.32 844.95l17.61 7.75c0.05,0.02 4.42,2.03 8.06,3.38 9.6,3.55 26.97,6.18 35.18,11.37 21.3,13.48 -2.58,3.77 25.29,11.66l11.33 4.53c0.44,0.23 1.46,0.78 1.9,1.03l11.97 7.54c12.52,-17.54 21.78,-39.27 28.97,-64.98 -14.72,-7.96 -9.96,3.69 -11.37,-20.56 -0.8,3.26 1.5,16.78 -20.04,5.07l-5.95 -3.66c-0.48,-0.24 -1.56,-0.89 -2.06,-1.11 -36.41,-16.01 -55.39,3.45 -74.11,-10.84l-26.78 48.82z"/>
  <path class="fil9" d="M915.43 638.39l11.52 63.23c6.76,13.22 4.12,4.04 34.05,8.08 20.98,2.84 13.07,-1.1 30.12,4.6 5.14,1.72 -9.46,3.75 11.12,2.34 9.48,-0.64 6.09,-0.34 13.26,-4.17l4.37 76.03c-9.11,-5.11 -4.24,0.36 3.73,-4.12l0.94 -191.7c-1.04,3 -1.64,7.46 -3.22,12.1 -0.38,1.11 -0.82,2.21 -1.25,3.4l-4.05 10.74c-4.02,11.31 -5.31,15.61 -8.65,24.01 -43.32,0.35 -20.77,-1.4 -49.01,-11.67 -9.47,11.6 -3.61,8.45 -19.07,11.13l-14.46 4.48c-0.85,-14.19 2.04,-3.84 -9.4,-8.48z"/>
  <path class="fil6" d="M1109.58 405.09c16.88,51.43 51.33,43.08 108.03,39.18 23.99,-36.33 4.79,-68.07 -7.21,-101.57 -11.8,0.7 2.92,-4.8 -5.38,3.33 -16.87,16.52 11.54,-1.08 -45.17,45.45l-13.08 11.87c-0.97,0.99 -6.09,12.88 -21.07,9.79 -1.4,-0.29 -7.73,-3.31 -9.65,-4.21 -0.82,-0.39 -2.64,-0.33 -3.23,-1.87 -0.6,-1.57 -2.11,-1.39 -3.24,-1.97z"/>
  <path class="fil10" d="M1065.37 334.78c0.69,2.32 25.62,36.62 32.85,43.51 9.1,-9.24 17.4,-8.29 43.31,-26.07l18.04 -15.27c14.44,-10.8 -7.95,3.74 5.01,-3.25l11.97 -4.6c9.59,-5.48 6.71,-5.67 11.12,-14.64 5.85,-11.91 -5.1,1.16 5,-10.04 -5.76,-13.6 -17,-32.5 -27.49,-36.71 -20.07,-12 12.05,15.24 -51.47,36.22 -36.64,12.1 -9.68,21.96 -36.34,28.06 -14.22,3.24 -2.93,-12.41 -12,2.79z"/>
  <path class="fil1" d="M2610.03 1034.33l1 112.11 24.4 0.41c4.32,-62.19 1.89,-171.96 1.93,-234.31l-33 1.52c12.04,21.56 5.65,90.88 5.67,120.27z"/>
  <path class="fil3" d="M862.87 535.88l28.01 28.95c8.91,3.99 8.57,-7.48 7.36,4.46 -2.29,-8.75 -2.5,-6.87 -5.75,-15.04 13.56,-2.45 16.01,-6.29 28.22,-11.07l70.06 -5.01c21.04,1.22 18.46,2.24 20.48,22.39l2.75 -16.97c1.22,-20.25 -8.49,-35 -16.71,-51.13l-2.74 12.73c-13.05,-20.19 -0.22,-13.74 -16.65,-20.83 -1.64,23.73 0.95,3.32 -4.19,16.67l-7.51 -4.6c-0.56,-0.16 -1.76,-0.54 -2.35,-0.62 -0.59,-0.08 -1.78,-0.09 -2.39,-0.07l-22.92 9.05c-14.97,5.23 -7.9,-0.81 -26.24,2.77l-15.99 3.45c-0.94,0.14 -2.18,0.18 -3.15,0.33 -16,2.53 -17.41,7.96 -27.77,2.18l8.33 20.84c-5.73,3.44 9.2,7.1 -10.85,1.52z"/>
  <path class="fil10" d="M598.33 500.03c41.41,-28.8 26.33,-62.91 30.82,-72.76 3.34,-16.69 -2.74,-0.07 8.29,-9 10.68,-8.64 4.51,-0.19 11.54,-13.05 -6.05,-12.37 1.95,1.13 -15.6,-14.93l12.88 -1.92 -87.79 0.39c9.77,7.64 11.64,6.78 28.15,8.89 -8.75,7.79 -4.98,12.16 -8.01,45.03 -2.08,22.57 -7.76,32.47 -4.49,49.81l24.21 7.54z"/>
  <path class="fil4" d="M1098.22 378.29l11.36 26.8c1.13,0.58 2.64,0.4 3.24,1.97 0.59,1.54 2.41,1.48 3.23,1.87 1.92,0.9 8.25,3.92 9.65,4.21 14.98,3.09 20.1,-8.8 21.07,-9.79l13.08 -11.87c56.71,-46.53 28.3,-28.93 45.17,-45.45 8.3,-8.13 -6.42,-2.63 5.38,-3.33 -4.04,-13.87 -11.47,-29.27 -17.73,-38.28 -10.1,11.2 0.85,-1.87 -5,10.04 -4.41,8.97 -1.53,9.16 -11.12,14.64l-11.97 4.6c-12.96,6.99 9.43,-7.55 -5.01,3.25l-18.04 15.27c-25.91,17.78 -34.21,16.83 -43.31,26.07z"/>
  <path class="fil11" d="M852.45 866.46c4.51,5.7 1.01,4.55 11.42,11.43l21.93 10.12c0.58,0.25 1.73,0.69 2.29,0.93l10.45 4.63c44.36,24.77 31.9,16.93 67.51,28.61l21.61 -29.97 -11.97 -7.54c-0.44,-0.25 -1.46,-0.8 -1.9,-1.03l-11.33 -4.53c-27.87,-7.89 -3.99,1.82 -25.29,-11.66 -8.21,-5.19 -25.58,-7.82 -35.18,-11.37 -3.64,-1.35 -8.01,-3.36 -8.06,-3.38l-17.61 -7.75c-10.53,8.87 -15.69,14.62 -23.87,21.51z"/>
  <path class="fil10" d="M478.91 1261.97l-20.9 -0.66c-20.71,3.43 -35.1,0.08 -55.83,-3.36l20.78 -8.35 5.67 -32.72c0.22,-0.65 0.67,-1.8 0.91,-2.49 16.55,-47.91 9.29,-65.48 46.85,-55.09l-48.6 -3.05c-14.64,-3.24 -7.41,0.03 -16.91,-6.44l-22.48 2.61c11.63,7.91 11.76,6.43 8.89,26.58l-15.67 72.66 97.29 10.31z"/>
 </g>
</svg>
