<?xml version="1.0" encoding="UTF-8"?>
<!DOCTYPE svg PUBLIC "-//W3C//DTD SVG 1.1//EN" "http://www.w3.org/Graphics/SVG/1.1/DTD/svg11.dtd">
<!-- Creator: CorelDRAW 2021 (64-Bit) -->
<svg xmlns="http://www.w3.org/2000/svg" xml:space="preserve" width="4252px" height="1654px" version="1.1" style="shape-rendering:geometricPrecision; text-rendering:geometricPrecision; image-rendering:optimizeQuality; fill-rule:evenodd; clip-rule:evenodd"
viewBox="0 0 4252 1653.56"
 xmlns:xlink="http://www.w3.org/1999/xlink"
 xmlns:xodm="http://www.corel.com/coreldraw/odm/2003">
 <defs>
  <style type="text/css">
   <![CDATA[
    .fil2 {fill:#1265A9}
    .fil0 {fill:#1551A2}
    .fil7 {fill:#19339A}
    .fil9 {fill:#1C93C4}
    .fil4 {fill:#21B4CE}
    .fil3 {fill:#25D4DC}
    .fil8 {fill:#42A64E}
    .fil1 {fill:#5EB856}
    .fil5 {fill:#7CC857}
    .fil6 {fill:#FDFDFD}
    .fil10 {fill:white}
   ]]>
  </style>
 </defs>
 <g id="Layer_x0020_1">
  <metadata id="CorelCorpID_0Corel-Layer"/>
  <path class="fil0" d="M161.58 1065.77l40.8 48.58c6.04,7.22 3.31,0.24 6.59,10.86 1.81,5.86 1.13,8.54 1.19,14.49l10.22 -5.36c0.04,-0.02 15.54,-1.07 17.05,-0.57 22.08,7.2 6.62,18.46 5.87,26.85 3.58,2.01 5.6,1.63 8.36,4.09 15.78,14.06 3.15,19.59 12.02,25.61 12.5,8.5 -11.47,-1.82 4.71,-0.25 14.31,1.38 9.37,1.74 18.97,16.48 11.7,-0.84 16.52,-2.46 23.99,-2.04 5.06,0.28 4.35,-0.3 10.37,2.66 0.69,0.34 1.67,1.15 2.36,1.54 0.72,0.4 1.65,1.25 2.39,1.67 0.75,0.44 1.7,1.22 2.49,1.65 0.81,0.45 1.84,1.08 2.7,1.5l17.82 7.68c0.67,0.35 1.65,1.17 2.28,1.49 0.56,0.28 1.52,1.08 2.07,1.31 10.18,4.3 10.72,0.61 21.71,-3.65 5.31,17.05 13.17,14.6 18.84,24.05 4.34,7.23 0.01,7.31 8.41,14.9l26.28 22.34c7.82,10.25 14.99,17.58 17.75,30.74 4.43,21.12 6.14,7.87 -4.34,15.83 15.83,1.76 18.45,6.5 32.86,8.52 11.06,1.54 29.1,1.05 40.82,1.24 -14.28,4.7 -33.32,1.2 -45.44,3.25 -0.03,0.01 3.74,-6.31 -14.28,4.85l443.69 0.02 22.98 -179.13 -570.76 -0.78c1.18,-42.83 17.6,-93.68 12.68,-134.21 -8.2,-31.22 -2.83,-19.64 -25.77,-43.7l-11.19 -32.87c-0.55,-0.74 -1.33,-1.66 -1.89,-2.38 -7.65,-9.84 -30.53,-36.8 -35.86,-14.43l-20.55 -24.42c-10.1,-14.99 -2.2,-10.01 -20.96,-25.93l-21.47 -23.76c-1.45,-1.12 -16.98,-7.79 -25.06,-8.79 -0.55,-18.79 0.37,-19.65 -7.73,-28.96l-32.97 239.03z"/>
  <path class="fil1" d="M819.91 926.18c5.9,6.34 3.46,-5.51 5.4,15.37 0.25,2.65 -0.7,13.74 -0.84,17.22l27.39 0.97c0.41,-1 1.88,-0.41 2.71,-0.88 5.23,11.73 -3.49,1.07 3.54,9.76 1.19,1.46 6.16,4.71 10.46,8.45 15.54,13.51 5.33,12.03 22.82,26.91l17.37 20.35c1.6,2.24 4.15,4.37 7.42,9.32 22.4,-4.79 32.22,-26.78 32.69,21.48 10.08,-3.4 10.94,-13.11 20.04,0.16l1.03 37.11 21.04 3.45c-80.36,0 -160.76,-0.65 -241.11,0.68 -70.53,1.17 -174.52,7.78 -241.57,-0.68 6.55,12.9 22.24,7.37 54.06,7.38 95.2,0.06 376.66,-4.52 428.51,1.13 19.16,-3.45 14.8,-17.74 40.7,2.48 0.35,0.27 1.26,0.97 1.58,1.26 12.56,11.21 -8.01,7.45 15.79,13.64 -13.26,15.24 -6.14,-1.12 -11.85,15.76l25.28 29c0.42,-0.69 0.81,-2.79 0.88,-2.26 0.07,0.53 0.67,-1.88 0.76,-2.26l2.53 -19.81c10.97,17.01 -3.69,4.49 13.46,15.35 19.68,12.46 19.71,3.79 34.93,25.56 6.4,9.16 8.69,7.05 12.59,8.58 1.6,46.4 14.62,13.5 51.43,34.24 1.36,-23.3 0.22,-6.65 5.42,-13.26l-37.51 -262.37 -10.17 12.96c-0.84,-31.3 -4.44,-36.05 -17.75,-40.85 -28.61,-10.31 -19.7,1.03 -19.27,23.35 -7.12,-2.23 -9.22,-2.41 -12.08,-14.8 -5.56,-24.09 0.91,-8.83 -10.64,-18.45 -18.09,-15.06 7.01,-7.69 -18.53,-21.04 11.97,-16.68 6.45,0.23 11.72,-16.45 -12.65,-8.86 -13.68,-8.58 -22.39,-22.99l-39.22 -43.87c-4.67,-5.76 0.16,1.31 -3.51,-7.18 -17.57,-40.57 -15.16,-23.34 -31.53,-37.36 -14.85,-12.72 -0.93,-4.54 -16.85,-12.47 -13.33,-6.63 -7.36,-16.85 -43.02,-36.28l-6.53 -3.79c9.08,-3.96 21.59,-7.21 32.47,-2.74 -62.85,0 -126.3,-2.86 -189.69,-3.19 -37.95,-0.2 -161.53,-11.26 -187.4,1.17l-5.93 53.18 283.87 0.21 -20.5 166.5z"/>
  <path class="fil2" d="M194.55 826.74c8.1,9.31 7.18,10.17 7.73,28.96 8.08,1 23.61,7.67 25.06,8.79l21.47 23.76c18.76,15.92 10.86,10.94 20.96,25.93l20.55 24.42c5.33,-22.37 28.21,4.59 35.86,14.43 0.56,0.72 1.34,1.64 1.89,2.38l11.19 32.87c22.94,24.06 17.57,12.48 25.77,43.7 27.5,-39.79 -37.4,-43.29 80.67,-42.8 24.74,0.1 50.52,-1.22 74.83,0.78l238.97 -0.6 0.35 0.56c-119.59,6.77 -99.58,-2.21 -161.67,-63.2 -21.37,-20.99 -97.77,-91.92 -106.6,-116.43l-92.93 -0.31c-3.86,-43.24 21.09,-117.91 13.8,-157.82 -7.54,-20.92 -95.9,-105.8 -122.64,-133.79 -7.92,-8.29 -12.71,-13.12 -20.38,-21.42 -2.57,-2.79 -7.55,-8.62 -10.3,-10.46 -8.57,-5.73 -1.86,-5.14 -12.75,-3.19l-51.83 343.44z"/>
  <path class="fil3" d="M547.65 210.68c13.42,5.05 -5.01,0.67 22.6,19.31 21.32,14.39 3.1,11.61 31.13,37.18 133.67,-37.43 231.23,47.23 212.22,184.68l-183.83 0.45 -13.92 17.69c0.34,0.89 1.9,4.62 3.29,6.66 3.11,4.55 4.29,5.01 7.89,8.54l7.07 6.47c-4.5,9.11 -15.08,18.19 -6.31,21.82 7.41,3.07 4.93,2.58 17.1,-6l20.62 14.79c9.86,8.74 7.26,7.93 9.36,13.8 21.54,-7.3 -7.36,-8.99 21.86,-4.68 27.52,4.06 42.08,14.63 50.99,41.06l10.79 -6.21c0.63,31.78 1.53,11.59 17,24.7 14.74,12.48 -4.05,11.55 23.07,26.74 0.81,0.46 1.93,0.97 2.73,1.44 0.79,0.45 1.8,1.12 2.58,1.59 14.92,8.94 -7.39,1.94 13.51,7.44 8.22,2.17 24.37,1.24 32.52,0.8l-274.73 5.09 -158.31 2.85 506.3 -1.23 25.56 -183.84 -50.51 0.18c-9.2,-62.17 6.11,-77.96 -22.76,-140.17 -16.82,-36.25 -47.68,-72.29 -75.39,-91.3 -35.03,-24.03 -70.29,-41.58 -121.92,-44.41 -39.6,-2.18 -111.1,8 -130.51,34.56z"/>
  <path class="fil4" d="M367.58 452.52c-7.43,6.62 2.08,2.88 -9.46,6.13 -3.87,1.09 -7.62,0.75 -11.53,0.85 5.55,6.37 0.14,-0.4 4.98,7.99l4.28 7.39c2.75,5.04 2.21,3.46 2.85,6.73 1.69,8.59 -6.76,-7.93 0.56,10.05 19.04,6.17 -11.92,-12.4 8.91,-0.47 0.32,0.18 10.28,10.14 11.21,10.81l11.94 5.67c0.32,0.26 1.15,1.16 1.44,1.47l29.51 43.15c14.68,10.46 25.77,-1.28 29.78,24.81 30.81,-1.73 7.32,-7.01 27.91,9.03 6.15,4.8 8.62,5.1 12.72,8.17 6.89,5.19 2.16,0.65 6.75,6.24 6.58,8.03 4.21,13.26 15.38,21.57 18.21,13.54 42.95,-0.08 60.38,11.93l274.73 -5.09c-8.15,0.44 -24.3,1.37 -32.52,-0.8 -20.9,-5.5 1.41,1.5 -13.51,-7.44 -0.78,-0.47 -1.79,-1.14 -2.58,-1.59 -0.8,-0.47 -1.92,-0.98 -2.73,-1.44 -27.12,-15.19 -8.33,-14.26 -23.07,-26.74 -15.47,-13.11 -16.37,7.08 -17,-24.7l-10.79 6.21c-8.91,-26.43 -23.47,-37 -50.99,-41.06 -29.22,-4.31 -0.32,-2.62 -21.86,4.68 -2.1,-5.87 0.5,-5.06 -9.36,-13.8l-20.62 -14.79c-12.17,8.58 -9.69,9.07 -17.1,6 -8.77,-3.63 1.81,-12.71 6.31,-21.82l-7.07 -6.47c-3.6,-3.53 -4.78,-3.99 -7.89,-8.54 -1.39,-2.04 -2.95,-5.77 -3.29,-6.66l13.92 -17.69 -119.65 -0.18c-6.28,-40.42 0.96,-88.78 18.68,-118.98 29.65,-50.53 41.56,-42.54 72.58,-65.97 -28.03,-25.57 -9.81,-22.79 -31.13,-37.18 -27.61,-18.64 -9.18,-14.26 -22.6,-19.31 -33.1,4.41 -73.8,58.67 -90.95,87.78 -35.52,60.3 -22.86,84.77 -30.44,152.93l-58.68 1.13z"/>
  <path class="fil5" d="M562.47 706.29c25.87,-12.43 149.45,-1.37 187.4,-1.17 63.39,0.33 126.84,3.19 189.69,3.19 -10.88,-4.47 -23.39,-1.22 -32.47,2.74l6.53 3.79c35.66,19.43 29.69,29.65 43.02,36.28 15.92,7.93 2,-0.25 16.85,12.47 16.37,14.02 13.96,-3.21 31.53,37.36 3.67,8.49 -1.16,1.42 3.51,7.18l39.22 43.87c8.71,14.41 9.74,14.13 22.39,22.99 -5.27,16.68 0.25,-0.23 -11.72,16.45 25.54,13.35 0.44,5.98 18.53,21.04 11.55,9.62 5.08,-5.64 10.64,18.45 2.86,12.39 4.96,12.57 12.08,14.8 -0.43,-22.32 -9.34,-33.66 19.27,-23.35 13.31,4.8 16.91,9.55 17.75,40.85l10.17 -12.96 -60 -416.65c-9.6,-62.93 -5.29,-84.58 -79.27,-80.99l-33.65 247.11 -402.35 1.67c-1.13,0.35 -2.26,0.97 -3.23,1.35 -0.96,0.38 -2.27,1.34 -3.01,1.68 -0.74,0.35 -2.04,1.09 -2.88,1.85z"/>
  <path class="fil6" d="M601.38 267.17c-31.02,23.43 -42.93,15.44 -72.58,65.97 -17.72,30.2 -24.96,78.56 -18.68,118.98l119.65 0.18 183.83 -0.45c19.01,-137.45 -78.55,-222.11 -212.22,-184.68z"/>
  <path class="fil7" d="M456.44 1346.08c18.02,-11.16 14.25,-4.84 14.28,-4.85 12.12,-2.05 31.16,1.45 45.44,-3.25 -11.72,-0.19 -29.76,0.3 -40.82,-1.24 -14.41,-2.02 -17.03,-6.76 -32.86,-8.52 10.48,-7.96 8.77,5.29 4.34,-15.83 -2.76,-13.16 -9.93,-20.49 -17.75,-30.74l-26.28 -22.34c-8.4,-7.59 -4.07,-7.67 -8.41,-14.9 -5.67,-9.45 -13.53,-7 -18.84,-24.05 -10.99,4.26 -11.53,7.95 -21.71,3.65 -0.55,-0.23 -1.51,-1.03 -2.07,-1.31 -0.63,-0.32 -1.61,-1.14 -2.28,-1.49l-17.82 -7.68c-0.86,-0.42 -1.89,-1.05 -2.7,-1.5 -0.79,-0.43 -1.74,-1.21 -2.49,-1.65 -0.74,-0.42 -1.67,-1.27 -2.39,-1.67 -0.69,-0.39 -1.67,-1.2 -2.36,-1.54 -6.02,-2.96 -5.31,-2.38 -10.37,-2.66 -7.47,-0.42 -12.29,1.2 -23.99,2.04 -9.6,-14.74 -4.66,-15.1 -18.97,-16.48 -16.18,-1.57 7.79,8.75 -4.71,0.25 -8.87,-6.02 3.76,-11.55 -12.02,-25.61 -2.76,-2.46 -4.78,-2.08 -8.36,-4.09 0.75,-8.39 16.21,-19.65 -5.87,-26.85 -1.51,-0.5 -17.01,0.55 -17.05,0.57l-10.22 5.36c-0.06,-5.95 0.62,-8.63 -1.19,-14.49 -3.28,-10.62 -0.55,-3.64 -6.59,-10.86l-40.8 -48.58c-4.92,44.6 -12.59,93.6 -19.18,138.63 -26.64,181.93 17.08,137.6 314.04,141.68z"/>
  <path class="fil8" d="M759.5 989.36l-238.97 0.6 -12.23 105.89c67.05,8.46 171.04,1.85 241.57,0.68 80.35,-1.33 160.75,-0.68 241.11,-0.68l-21.04 -3.45 -1.03 -37.11c-9.1,-13.27 -9.96,-3.56 -20.04,-0.16 -0.47,-48.26 -10.29,-26.27 -32.69,-21.48 -3.27,-4.95 -5.82,-7.08 -7.42,-9.32l-17.37 -20.35c-17.49,-14.88 -7.28,-13.4 -22.82,-26.91 -4.3,-3.74 -9.27,-6.99 -10.46,-8.45 -7.03,-8.69 1.69,1.97 -3.54,-9.76 -0.83,0.47 -2.3,-0.12 -2.71,0.88l-27.39 -0.97c0.14,-3.48 1.09,-14.57 0.84,-17.22 -1.94,-20.88 0.5,-9.03 -5.4,-15.37l-8.45 64.12 -51.96 -0.94z"/>
  <path class="fil8" d="M990.87 1104.36l-31.93 241.83c98.6,-0.36 213.01,23.49 231.44,-47.46 5.91,-22.75 -3.34,-62.77 -6.01,-86.09 -5.2,6.61 -4.06,-10.04 -5.42,13.26 -36.81,-20.74 -49.83,12.16 -51.43,-34.24 -3.9,-1.53 -6.19,0.58 -12.59,-8.58 -15.22,-21.77 -15.25,-13.1 -34.93,-25.56 -17.15,-10.86 -2.49,1.66 -13.46,-15.35l-2.53 19.81c-0.09,0.38 -0.69,2.79 -0.76,2.26 -0.07,-0.53 -0.46,1.57 -0.88,2.26l-25.28 -29c5.71,-16.88 -1.41,-0.52 11.85,-15.76 -23.8,-6.19 -3.23,-2.43 -15.79,-13.64 -0.32,-0.29 -1.23,-0.99 -1.58,-1.26 -25.9,-20.22 -21.54,-5.93 -40.7,-2.48z"/>
  <path class="fil9" d="M759.85 989.92l20.74 -179.23 -289.01 -0.4c8.83,24.51 85.23,95.44 106.6,116.43 62.09,60.99 42.08,69.97 161.67,63.2z"/>
  <path class="fil9" d="M246.38 483.3c10.89,-1.95 4.18,-2.54 12.75,3.19 2.75,1.84 7.73,7.67 10.3,10.46 7.67,8.3 12.46,13.13 20.38,21.42 26.74,27.99 115.1,112.87 122.64,133.79l4.43 -15.27 158.31 -2.85c-17.43,-12.01 -42.17,1.61 -60.38,-11.93 -11.17,-8.31 -8.8,-13.54 -15.38,-21.57 -4.59,-5.59 0.14,-1.05 -6.75,-6.24 -4.1,-3.07 -6.57,-3.37 -12.72,-8.17 -20.59,-16.04 2.9,-10.76 -27.91,-9.03 -4.01,-26.09 -15.1,-14.35 -29.78,-24.81l-29.51 -43.15c-0.29,-0.31 -1.12,-1.21 -1.44,-1.47l-11.94 -5.67c-0.93,-0.67 -10.89,-10.63 -11.21,-10.81 -20.83,-11.93 10.13,6.64 -8.91,0.47 -7.32,-17.98 1.13,-1.46 -0.56,-10.05 -0.64,-3.27 -0.1,-1.69 -2.85,-6.73l-4.28 -7.39c-4.84,-8.39 0.57,-1.62 -4.98,-7.99 3.91,-0.1 7.66,0.24 11.53,-0.85 11.54,-3.25 2.03,0.49 9.46,-6.13 -49.84,0.76 -107.39,-13.17 -121.2,30.78z"/>
  <g id="_2809193861168">
   <path class="fil10" d="M3027.8 607.97c-269.11,31.57 -239.57,516.13 58.87,474.9 259.86,-35.9 237.82,-509.71 -58.87,-474.9zm-7.29 92.79c-121.35,44.93 -84.24,349.05 68.38,290.95 118.17,-44.99 90.3,-349.69 -68.38,-290.95z"/>
   <path class="fil10" d="M3350.06 656.1l-0.53 421.47 102.42 0.16 0.33 -169.29 60.16 -0.88c40.77,52.16 75.49,170.59 105.38,170.6l98.39 0.18 -103.35 -189.99c62.99,-18.62 101.39,-107.03 73.8,-184.93 -39.62,-111.89 -210.72,-89.45 -336.82,-89.72l0.22 42.4zm102.21 170.48c67.24,9.97 137.11,4.83 141.12,-60.97 4.48,-73.55 -80.99,-82.32 -141.42,-67.55l0.3 128.52z"/>
   <polygon class="fil10" points="1449.78,679.31 1450.31,1076.66 1754.25,1077.94 1756.17,992.9 1554.35,992.18 1553.73,881.91 1717.78,880.08 1719.03,797.74 1553.05,795.56 1553.69,698.86 1750.86,698.53 1751.19,613.78 1450,615.37 "/>
   <polygon class="fil10" points="3787.82,1076.7 4089.96,1077.99 4090.29,995.94 3890.21,992.75 3890.5,881.45 4052.82,880.78 4054.63,795.65 3889.89,796.18 3890.55,698.16 4086.27,698.01 4086.56,615.14 3787.57,613.73 "/>
   <path class="fil10" d="M2121.12 950.93l-51.46 70.65c131.2,129.96 400.71,47.99 334.77,-126.69 -27.67,-73.32 -112.2,-81.42 -182.43,-119.02 -45.83,-24.53 -46.7,-70.17 9.47,-80.41 55.3,-10.09 83.65,15.64 121.69,31.95l44.79 -64.47c-56.12,-75.36 -264.77,-86.73 -306.86,38.79 -31.3,93.36 35.2,147.11 113.09,178.78 31.31,12.73 86.3,32 97.93,53.47 26.85,49.55 -33.83,69.16 -76.41,64.9 -45.41,-4.55 -74.27,-29.95 -104.58,-47.95z"/>
   <polygon class="fil10" points="2448.84,698.07 2578.38,697.72 2579.57,1077.3 2680.02,1076.46 2681.8,697.38 2811.15,697.4 2810.8,615.27 2449.21,613.52 "/>
   <polygon class="fil10" points="1825.33,936.3 2009.57,935.73 2009.3,861.09 1826.72,860.3 "/>
  </g>
 </g>
</svg>
