<?xml version="1.0" encoding="UTF-8"?>
<!DOCTYPE svg PUBLIC "-//W3C//DTD SVG 1.1//EN" "http://www.w3.org/Graphics/SVG/1.1/DTD/svg11.dtd">
<!-- Creator: CorelDRAW 2021 (64-Bit) -->
<svg xmlns="http://www.w3.org/2000/svg" xml:space="preserve" width="4961px" height="2008px" version="1.1" style="shape-rendering:geometricPrecision; text-rendering:geometricPrecision; image-rendering:optimizeQuality; fill-rule:evenodd; clip-rule:evenodd"
viewBox="0 0 4961 2008.02"
 xmlns:xlink="http://www.w3.org/1999/xlink"
 xmlns:xodm="http://www.corel.com/coreldraw/odm/2003">
 <defs>
  <style type="text/css">
   <![CDATA[
    .fil2 {fill:#003E8D}
    .fil0 {fill:#0A5FA5}
    .fil1 {fill:white}
   ]]>
  </style>
 </defs>
 <g id="Layer_x0020_1">
  <metadata id="CorelCorpID_0Corel-Layer"/>
  <path class="fil0" d="M942.36 905.58c-34.19,5.64 -76.74,3.03 -106.8,-14.1 -27.58,-15.71 -47.98,-30.26 -74.22,-46.62 -61.77,-38.53 -166.86,-93.18 -226.41,-132.14 -15.21,-9.96 -23.77,-13.71 -36.99,-21.18l-192.69 -110.99c0.59,-0.77 1.76,-2.72 2.09,-2l242.5 -136.14c89.44,-55.19 212.22,-121.49 306.78,-176.76 70.04,-40.94 43.71,-39.41 188.6,41.45l232.65 129.42c19.68,12.8 7.31,-4 11.99,17.05l-206.06 127.04c-87.81,63.66 -119.05,34.46 -153.67,54.45 -21.91,12.66 -53.57,61.42 -24.71,99.44 10.21,13.47 16.08,18.58 36.95,24.74 39.07,11.51 73.15,-0.44 104.15,-24.28 24.97,-19.2 4.72,-31.07 20.98,-49.95l126.75 -77.82c17.65,-8.78 28,-13.86 45.27,-24.98l171.96 -103.25c9.24,-9.05 29.36,-46.82 -0.68,-71.11 -38.77,-31.35 -406.4,-222.31 -467.52,-253.62 -52.56,-26.92 -98.15,5.47 -147.73,33.6 -18.97,10.76 -31.15,12.78 -47.49,22.83 -30.61,18.84 -57.91,33.48 -87.98,50.02l-354.92 194.8c-30.28,16.63 -57.37,33.78 -88.54,49.66 -115.11,58.63 -83.82,32.18 -84.33,325.42 -0.32,182.79 -2.43,367.48 0.53,550.08 0.4,24.73 3.44,28.72 20.45,43.13 9.49,8.05 7.99,7.96 16.89,16.64 26.38,25.69 59.85,34.6 108.05,63.18 37.28,22.11 52.08,25.15 89.21,47.66 13.66,8.28 26.56,17.12 40.9,25.68 15.5,9.26 28,18.02 43.6,27.26l87.59 49.88c24.99,16.32 60.81,38.6 86.12,51.85 29.87,15.65 55.41,33.02 87.06,50.27 33.32,18.15 56.83,29.61 88.44,48.99 85.54,52.46 106.04,56.63 200.03,1.25l107.36 -63.96c13.69,-6.39 8.3,-4.21 21.4,-12.21 14.53,-8.87 30.67,-18.15 44.86,-25.46l347.45 -202.72c66.37,-40.57 142.24,-64.71 143.53,-129.56 4.24,-212.81 0.2,-468.7 0.05,-687.8 -0.03,-44.46 7.35,-105.46 -12.46,-122.89 -14.87,-13.08 -28.9,-15.4 -52.43,-14.17 -27.7,1.44 -29.64,8.44 -49.52,21.28 -9.61,6.21 -14.82,8.43 -20.66,12.15 -7.83,4.99 -12.03,8.52 -19.89,13.4 -44.8,27.8 -84.22,43.95 -133.44,75.84 -15.57,10.09 -28.25,14.57 -43.09,22.88 -14.54,8.15 -31.04,21.25 -43.39,27.93 -33.57,18.16 -54.08,30.58 -88.04,49.08 -31.03,16.89 -57.18,30.8 -87.82,49.85l-88.94 48.39c-30.17,14.48 -53.98,34.57 -86.08,44.88 -2.42,0.78 -4.88,1.5 -7.4,2.16 13.91,-2.77 9.72,-0.84 7.4,-2.16 -1.41,-0.8 -2.12,-2.79 2.31,-7.76zm591.82 -25.03c13.36,-27.87 6.59,-129.27 6.1,-169.21 -22.42,2.84 -47.06,20.75 -67.74,33.11l-306.16 176.92c-49.48,27.43 -146.7,76.02 -180.37,111.09 -23.04,24 -15.7,41.85 -15.72,81.46 -0.03,65.28 -0.09,130.57 -0.04,195.85 0.09,130.27 2.29,263.01 -0.55,392.99l429.08 -249.28c25.65,-16.79 42.65,-28.45 69.66,-42.68 13.21,-6.97 59.31,-32.64 71.01,-42.69l1.1 -140.36c-13.25,2.96 -10.1,2.3 -23.1,6.62l12.27 -13.86c4.15,-2.76 9.32,-3.85 16.39,-5.53 -21.06,0.91 -40.82,16.35 -58.06,27.96l-57.67 33.98c-28.33,12.91 -99.57,62.7 -143.09,85.79 -29.33,15.56 -6.13,17.91 -33.97,57.51 -4.73,6.73 -17.99,17.47 -24.71,21.73 -21.22,13.47 -48.66,19.25 -76.63,12.29 -16.15,-4.01 -38.6,-29.02 -43.76,-47.35 -8.14,-28.88 23.07,-84.39 82.73,-93.58 44.23,-6.81 71.06,-31.01 124.89,-58.96l236.58 -129.7c2.68,-23.24 7.5,-139.77 -4.75,-149.16 -10.97,-12.63 -32.84,10.16 -70.66,26.79 -9.52,4.19 -16.28,9.61 -26.59,14.87 -171.86,87.74 -80.23,61.27 -121.05,108.97 -26.18,30.59 -79.4,38.21 -117.21,26.44 -47.88,-14.92 -52.5,-70.96 -22.39,-103.64 35.11,-38.1 80.14,-7.85 112.66,-29.18 42.78,-28.06 229.65,-122.55 247.94,-143.91l-16.19 4.72zm-693.92 802.13c7.15,-40.56 1.61,-146.33 1.57,-193.73 -0.11,-114.33 3.86,-285.91 0.17,-391.94 -1.87,-54.02 -45.04,-64.36 -66.6,-78.35 -60.44,-39.24 -126.76,-71.33 -184.69,-107.11 -104,-64.22 -233.91,-130.05 -328.03,-188.82 -9.1,-5.68 -5.69,-5.09 -14.34,-8.06 -5.01,58.39 -1.03,134.75 -1.01,195.07 0.02,54.23 -3.59,366.5 0.51,391.05 1.68,10.03 21.84,50.35 36.11,59.12 19.86,12.2 44.12,23.24 65.26,34.69 41.59,22.53 82.17,49.35 123.56,72.21 125.12,69.09 249.07,149.22 367.49,215.87z"/>
  <g id="_2809468535472">
   <path class="fil1" d="M2701.22 677.33c-183.32,30.76 -281.52,170.06 -255.51,351.78 42.84,299.37 420.6,316.06 550.59,140.89 163.45,-220.27 -9.77,-540.55 -295.08,-492.67zm7.48 17.57c-23.63,5.55 -41.35,-2.38 -88.9,20.79 -41.03,19.98 -21.62,5.65 -67.14,40.34l-50.14 56.59c-0.46,0.74 -1.05,1.82 -1.49,2.58l-11.82 21.51c-20.46,37.49 -27.88,72.62 -33.61,114.55 -3.92,28.62 1.71,44.73 3.06,68.96 1.63,29.32 11.24,63.46 22.22,88.56l11.99 24.66c0.49,0.85 1.14,1.87 1.65,2.72 17.2,29.04 41.47,58.8 67.14,80.32 5.06,4.24 12.58,9.28 19.33,13.59 9.15,5.84 14.87,7.13 25.27,11.51l115.26 32.56c60.68,3.18 120.52,-6.47 173.01,-29.44 8.52,-3.72 6.99,-3.71 13.7,-7.29l56.37 -40.58c0.64,-0.6 1.53,-1.44 2.17,-2.03l37.31 -42.65c4.69,-6.65 1.44,-1.11 6.7,-10.42l12.22 -25.82c32.54,-73.03 41.58,-156.45 12.85,-237.68l-23.54 -50.75c-32.3,-60.68 -105.73,-112.67 -170.45,-126.75 -33.91,-7.38 -86.3,-13.48 -120.74,-10.15 -18.16,1.75 -9.96,3.75 -12.42,4.32z"/>
   <path class="fil1" d="M3959.81 677.57c-100.99,17.28 -149.64,47.47 -198.43,107.37 -41.92,51.46 -73.8,151.6 -61.21,239.87 24.08,168.81 158.74,278.42 352.19,254.35 79.58,-9.9 147.89,-47.11 196.3,-106.84 101.7,-125.47 82.74,-330.11 -48.59,-435.21 -53.11,-42.49 -149.76,-75.03 -240.26,-59.54zm19.82 17.33c-32.27,7.48 -71.8,-6.41 -150.61,45.9 -27.19,18.05 -62.73,58.87 -77.19,87.43 -31.59,62.42 -43.06,96.86 -38.92,183.75 2.17,45.54 14.77,81.41 31.16,117.08l20.1 30.48c24.61,36.52 35.16,43.37 67.2,66.37l73.38 37.33c49.29,14.11 151.5,11.69 198.31,-0.98 10.69,-2.89 17.7,-5.31 27.84,-10.65l7.96 -4.62c0.79,-0.41 1.83,-1.01 2.64,-1.39 28.16,-13.3 41.44,-15.57 72.53,-45.32l19.51 -18.49c30.52,-32.9 42.38,-56.7 58.68,-101.11 28.33,-77.14 20.7,-120.19 1.44,-189.65 -3.01,-10.84 -6.25,-19.44 -9.25,-27.79l-18.11 -35.96c-2.14,-3.76 -4.54,-8.41 -7.15,-12.96l-47.16 -52.89c-29.54,-27.46 -64.2,-45.61 -102.72,-56.8 -31.53,-9.17 -82.82,-17.47 -117.23,-14.06 -16.29,1.62 -11.38,4.09 -12.41,4.33z"/>
   <path class="fil1" d="M2708.7 694.9c-23.63,5.55 -41.35,-2.38 -88.9,20.79 -41.03,19.98 -21.62,5.65 -67.14,40.34l-50.14 56.59c-0.46,0.74 -1.05,1.82 -1.49,2.58l-11.82 21.51c-20.46,37.49 -27.88,72.62 -33.61,114.55 -3.92,28.62 1.71,44.73 3.06,68.96 1.63,29.32 11.24,63.46 22.22,88.56l11.99 24.66c0.49,0.85 1.14,1.87 1.65,2.72 17.2,29.04 41.47,58.8 67.14,80.32 5.06,4.24 12.58,9.28 19.33,13.59 9.15,5.84 14.87,7.13 25.27,11.51l115.26 32.56c60.68,3.18 120.52,-6.47 173.01,-29.44 8.52,-3.72 6.99,-3.71 13.7,-7.29l56.37 -40.58c0.64,-0.6 1.53,-1.44 2.17,-2.03l37.31 -42.65c4.69,-6.65 1.44,-1.11 6.7,-10.42l12.22 -25.82c32.54,-73.03 41.58,-156.45 12.85,-237.68l-23.54 -50.75c-32.3,-60.68 -105.73,-112.67 -170.45,-126.75 -33.91,-7.38 -86.3,-13.48 -120.74,-10.15 -18.16,1.75 -9.96,3.75 -12.42,4.32zm-12.5 112.51c-13.13,8.27 -47.33,9.53 -85.32,68.04 -0.69,1.05 -2.78,4.03 -3.47,5.03 -28.67,41.83 -28.48,111.87 -16.93,155.29 6.63,24.91 20.84,53.72 36.06,73.03 76.42,97 248.48,72.67 288.54,-63.9 7.97,-27.18 15.92,-75.37 9.05,-101.19 -0.24,-0.87 -0.69,-1.93 -0.97,-2.77 -0.28,-0.85 -0.83,-1.88 -1.15,-2.72l-3.75 -8.85c-4.22,-12.33 -3.5,-21.16 -8.88,-32.51l-5.98 -10.15c-27.24,-44.85 -65.89,-83.41 -123.69,-83.67 -15.32,-0.06 -30.71,0.3 -46.08,0.16 -23.63,-0.2 -26.27,-2.82 -37.43,4.21z"/>
   <path class="fil1" d="M3979.63 694.9c-32.27,7.48 -71.8,-6.41 -150.61,45.9 -27.19,18.05 -62.73,58.87 -77.19,87.43 -31.59,62.42 -43.06,96.86 -38.92,183.75 2.17,45.54 14.77,81.41 31.16,117.08l20.1 30.48c24.61,36.52 35.16,43.37 67.2,66.37l73.38 37.33c49.29,14.11 151.5,11.69 198.31,-0.98 10.69,-2.89 17.7,-5.31 27.84,-10.65l7.96 -4.62c0.79,-0.41 1.83,-1.01 2.64,-1.39 28.16,-13.3 41.44,-15.57 72.53,-45.32l19.51 -18.49c30.52,-32.9 42.38,-56.7 58.68,-101.11 28.33,-77.14 20.7,-120.19 1.44,-189.65 -3.01,-10.84 -6.25,-19.44 -9.25,-27.79l-18.11 -35.96c-2.14,-3.76 -4.54,-8.41 -7.15,-12.96l-47.16 -52.89c-29.54,-27.46 -64.2,-45.61 -102.72,-56.8 -31.53,-9.17 -82.82,-17.47 -117.23,-14.06 -16.29,1.62 -11.38,4.09 -12.41,4.33zm-12.55 115.64c-196.05,49.25 -149.39,387.95 80.66,335.96 193.83,-43.79 139.25,-391.21 -80.66,-335.96z"/>
   <path class="fil1" d="M3155.71 690.76c-12.04,26.69 -10.06,448.49 -7.86,546.22 0.46,20.62 0.91,21.06 8.5,27.77 17.15,14.29 179.75,7.14 214.92,7.12 80.18,-0.04 131.44,2.15 188.65,-34.17 84.22,-53.48 97.89,-171.35 44.54,-230.19 -31.75,-35.02 -41.05,-28.72 -64.36,-44.05 -0.55,-0.36 -1.71,-1.17 -2.48,-1.85 18.51,-20.16 35.65,-25.36 50.05,-50.22 13.41,-23.16 21.31,-45.96 20.43,-79.01 -1.62,-60.53 -42.4,-99.49 -79.54,-119.77 -47.97,-26.2 -112.19,-25.89 -173.95,-25.89 -33.39,0 -178.21,-3.61 -198.9,4.04zm130.65 227.1c22.19,3.98 92.45,2.76 118.03,1.48 38.63,-1.94 68.93,-15.67 68.42,-57.72 -0.98,-79.35 -118.93,-57.97 -188.7,-57.95l2.25 114.19zm-0.64 230.57c37.06,4.31 91.52,1.4 131.5,1.35 46.76,-0.05 77.8,-13.38 76.88,-63.22 -0.79,-43.3 -29.88,-60.85 -72.63,-62.34 -39.62,-1.38 -98.33,-2.36 -137.08,0.87l1.33 123.34z"/>
   <path class="fil1" d="M4521.44 974.11c-8.67,22.44 -121.49,176.25 -144.62,213.78 -30.73,49.87 -75.25,84.06 11.2,84.03 108.05,-0.03 80.04,6.19 141.76,-81.05 25.3,-35.76 47.84,-75.49 74.92,-106.88 12.8,9.2 60.48,89.62 72.95,108.97 32.89,51.04 41.44,78.93 114.56,79.04 28.9,0.04 61.85,4.77 83.61,-10.37 -0.93,-21.86 -159.73,-251.93 -181.49,-287.52 5.74,-17.44 82.15,-127.52 99.29,-152.69 101.49,-149.06 106.09,-134.72 -18.08,-134.72 -38.38,0.03 -46.04,1.06 -63.29,24.06l-101.35 149.3c-6.75,6.8 0.94,0.8 -8.23,6.7 -7.09,-22.48 -52.43,-88.26 -68.27,-114.06 -43.33,-70.57 -32.91,-65.88 -146.38,-65.91 -68.18,-0.01 -43.1,24.41 -18.06,59.52l151.48 227.8z"/>
   <path class="fil1" d="M1941.3 807.31l6.28 3.28c19.41,6.08 129.56,2.78 159.13,2.64l0.9 369.23c0.07,88.83 -12.4,89.55 63.57,89.45 22.15,-0.03 38.48,1.68 60.2,-4.26 7.87,-18.4 7.23,-20.1 7.21,-43.52l-0.37 -410.69 166.32 -0.46c9.84,-18.65 10.6,-114.49 0,-123 -8.08,-6.48 -373.6,-3.23 -412.54,-3.16 -41.93,0.04 -52.99,-10.45 -54.24,32.79 -0.71,24.71 -6.06,68.31 3.54,87.7z"/>
   <path class="fil1" d="M2696.2 807.41c-13.13,8.27 -47.33,9.53 -85.32,68.04 -0.69,1.05 -2.78,4.03 -3.47,5.03 -28.67,41.83 -28.48,111.87 -16.93,155.29 6.63,24.91 20.84,53.72 36.06,73.03 76.42,97 248.48,72.67 288.54,-63.9 7.97,-27.18 15.92,-75.37 9.05,-101.19 -0.24,-0.87 -0.69,-1.93 -0.97,-2.77 -0.28,-0.85 -0.83,-1.88 -1.15,-2.72l-3.75 -8.85c-4.22,-12.33 -3.5,-21.16 -8.88,-32.51l-5.98 -10.15c-27.24,-44.85 -65.89,-83.41 -123.69,-83.67 -15.32,-0.06 -30.71,0.3 -46.08,0.16 -23.63,-0.2 -26.27,-2.82 -37.43,4.21zm13.09 3.11c-193.64,47.6 -146.42,386.35 80.23,336.19 77.1,-17.07 140.91,-103.57 117.78,-208.31 -19.32,-87.46 -89.63,-154.51 -198.01,-127.88z"/>
  </g>
  <path class="fil2" d="M942.36 905.58c-11.74,13.16 12.64,5.47 -9.71,9.92 35.94,-9.4 61.03,-31.47 93.48,-47.04l88.94 -48.39c30.64,-19.05 56.79,-32.96 87.82,-49.85 33.96,-18.5 54.47,-30.92 88.04,-49.08 12.35,-6.68 28.85,-19.78 43.39,-27.93 14.84,-8.31 27.52,-12.79 43.09,-22.88 49.22,-31.89 88.64,-48.04 133.44,-75.84 7.86,-4.88 12.06,-8.41 19.89,-13.4 5.84,-3.72 11.05,-5.94 20.66,-12.15 19.88,-12.84 21.82,-19.84 49.52,-21.28 23.53,-1.23 37.56,1.09 52.43,14.17 19.81,17.43 12.43,78.43 12.46,122.89 0.15,219.1 4.19,474.99 -0.05,687.8 -1.29,64.85 -77.16,88.99 -143.53,129.56l-347.45 202.72c-14.19,7.31 -30.33,16.59 -44.86,25.46 -13.1,8 -7.71,5.82 -21.4,12.21l-107.36 63.96c-93.99,55.38 -114.49,51.21 -200.03,-1.25 -31.61,-19.38 -55.12,-30.84 -88.44,-48.99 -31.65,-17.25 -57.19,-34.62 -87.06,-50.27 -25.31,-13.25 -61.13,-35.53 -86.12,-51.85l-87.59 -49.88c-15.6,-9.24 -28.1,-18 -43.6,-27.26 -14.34,-8.56 -27.24,-17.4 -40.9,-25.68 -37.13,-22.51 -51.93,-25.55 -89.21,-47.66 -48.2,-28.58 -81.67,-37.49 -108.05,-63.18 -8.9,-8.68 -7.4,-8.59 -16.89,-16.64 -17.01,-14.41 -20.05,-18.4 -20.45,-43.13 -2.96,-182.6 -0.85,-367.29 -0.53,-550.08 0.51,-293.24 -30.78,-266.79 84.33,-325.42 31.17,-15.88 58.26,-33.03 88.54,-49.66l354.92 -194.8c30.07,-16.54 57.37,-31.18 87.98,-50.02 16.34,-10.05 28.52,-12.07 47.49,-22.83 49.58,-28.13 95.17,-60.52 147.73,-33.6 61.12,31.31 428.75,222.27 467.52,253.62 30.04,24.29 9.92,62.06 0.68,71.11l-171.96 103.25c-17.27,11.12 -27.62,16.2 -45.27,24.98l-126.75 77.82c-16.26,18.88 3.99,30.75 -20.98,49.95 -31,23.84 -65.08,35.79 -104.15,24.28 -20.87,-6.16 -26.74,-11.27 -36.95,-24.74 -28.86,-38.02 2.8,-86.78 24.71,-99.44 34.62,-19.99 65.86,9.21 153.67,-54.45l206.06 -127.04c-18.98,1.65 -131.59,71.67 -157.76,87.43 -26.89,16.2 -51.01,30.14 -77.91,47.33 -45.73,29.24 -36.92,20.55 -96.43,28.71 -79.26,10.86 -93.86,107.28 -43.32,141.29 36.23,24.38 102.57,17.5 141.19,-18.79 18.15,-17.06 10.64,-20.89 16.3,-46.48 10.37,-7.76 26.3,-16.38 35.82,-21.74 14.07,-7.92 24.67,-14.44 39.72,-23.48 26.73,-16.06 51.85,-30.9 78.67,-46.17 56.5,-32.17 101.47,-63.57 153.95,-91.85 29.1,-15.67 51.49,-25.64 54.61,-66.78 3.07,-40.49 -32.81,-55.23 -56.6,-68.69 -57.09,-32.28 -111.03,-59.31 -163.07,-87.28 -48.57,-26.11 -108.41,-58.7 -159.96,-86.3 -179.04,-95.83 -141.9,-91.01 -338.32,16.81 -164.68,90.41 -350.5,198.61 -515.67,284.37 -68.36,35.5 -77.28,31.96 -77.12,111.93l0.01 745.91c-0.7,81.4 49.42,97.86 115.36,131.86l470.11 271.98c25.15,13.19 52.24,29.55 76.6,43.94 59.24,34.98 103.87,73.73 187.66,25.05 175.99,-102.27 382.95,-218.32 548.49,-318.31 39.96,-24.14 122.2,-62.41 144.91,-104.77 13.55,-25.29 6.72,-624.83 6.79,-737.32 0.02,-35.07 6.96,-95.17 -11.79,-115.94 -51.8,-57.42 -129.88,14.42 -166.6,35.4 -25.62,14.64 -52.15,29.22 -79.18,46.02l-396.13 224.7c-15.96,8.69 -64.72,32.5 -77.83,43.18z"/>
  <path class="fil2" d="M1517.45 1234.37l12.27 -13.86c4.15,-2.76 9.32,-3.85 16.39,-5.53 -21.06,0.91 -40.82,16.35 -58.06,27.96l-57.67 33.98c-28.33,12.91 -99.57,62.7 -143.09,85.79 -29.33,15.56 -6.13,17.91 -33.97,57.51 -4.73,6.73 -17.99,17.47 -24.71,21.73 -21.22,13.47 -48.66,19.25 -76.63,12.29 -16.15,-4.01 -38.6,-29.02 -43.76,-47.35 -8.14,-28.88 23.07,-84.39 82.73,-93.58 44.23,-6.81 71.06,-31.01 124.89,-58.96l236.58 -129.7c2.68,-23.24 7.5,-139.77 -4.75,-149.16 -10.97,-12.63 -32.84,10.16 -70.66,26.79 -9.52,4.19 -16.28,9.61 -26.59,14.87 -171.86,87.74 -80.23,61.27 -121.05,108.97 -26.18,30.59 -79.4,38.21 -117.21,26.44 -47.88,-14.92 -52.5,-70.96 -22.39,-103.64 35.11,-38.1 80.14,-7.85 112.66,-29.18 42.78,-28.06 229.65,-122.55 247.94,-143.91l-16.19 4.72c-13.14,-0.17 -80.68,42.07 -95.49,50.51l-145.3 83.84c-19.14,7.59 -48.22,0.51 -70.56,5.14 -35.74,7.4 -71.86,40.21 -61.5,87.75 18.76,86.02 171.23,73.61 187.21,-3.88 6.01,-29.19 11.85,-27.15 35.63,-39.9l157.18 -82.64 -1.2 140.89 -233.47 126.81c-58.64,34.35 -68.67,45.49 -123.24,56.72 -29.48,6.07 -41.78,9.71 -57.53,29.24 -66.35,82.34 -0.35,148.96 81.18,126.8 20.89,-5.67 42.87,-23.62 52.21,-35.19 6.17,-7.65 13.58,-20.41 17.04,-28.78 14.47,-34.91 21.3,-29.89 72.74,-60.69l114.42 -68.76c9.39,-5.31 43.9,-23.07 53.95,-34.04z"/>
 </g>
</svg>
